<?xml version="1.0" encoding="UTF-8"?>
<svg id="Layer_2" data-name="Layer 2" xmlns="http://www.w3.org/2000/svg" viewBox="0 0 89.79 59.9">
  <defs>
    <style>
      .cls-1 {
        fill: #fff;
        stroke: #000;
        stroke-miterlimit: 10;
        stroke-width: 0.3px;
      }
    </style>
  </defs>
  <g id="Layer_1-2" data-name="Layer 1">
    <path class="cls-1" d="m66.87,24.92l.73-.44,1.04-.64c2.66-1.62,5.88-2.05,8.85-1.12,1.53.48,3.21.52,4.87.03,4.79-1.44,7.33-6.82,5.13-11.53-1.45-3.11-4.76-5.02-8.19-4.73-3.9.34-6.7,3.25-7.38,6.69-.08.41-.18.81-.3,1.2-1.35,4.37-5.54,6.81-9.83,6.51-1.36-.1-2.65-.62-3.8-1.37-.2-.13-.39-.25-.6-.37-3.61-2.12-7.67-2.67-11.44-1.88-2.93.62-6.03-.33-7.92-2.66-1.41-1.75-2.11-3.99-1.81-6.21.33-2.46-1.02-4.96-3.26-6.16-3.09-1.67-6.97-.44-8.53,2.74-1.43,2.92-.29,6.57,2.55,8.15.7.39,1.44.63,2.18.73,2.08.29,3.92,1.49,5.19,3.16l.33.43,1.23,1.64c.88,1.17,1.1,2.69.61,4.07v.03c-.09.22-.18.44-.3.65-.26.48-.59.9-.97,1.26-.38.35-.81.64-1.27.86-.98.46-2.11.5-3.17.25l-1.03-.25-1.41-.34c-3.57-.87-6.64-3.2-8.34-6.46-.88-1.68-2.25-3.13-4.05-4.09-5.05-2.72-11.43-.57-13.73,4.84-1.67,3.93-.58,8.59,2.69,11.33,3.54,2.97,8.31,2.88,11.77.57.38-.26.78-.49,1.18-.71,6.17-3.31,13.84,0,16.02,6.64l.08.24c.32.99.05,2.11-.76,2.77-.36.29-.78.51-1.25.64-.93.26-1.93.16-2.77-.31-.97-.55-2.23-.4-3.1.33-1.33,1.11-1.36,3.2.09,4.34.88.69,2.14.77,3.1.2.44-.26.77-.61,1.01-1.01.48-.82,1.28-1.4,2.19-1.66l.24-.07.89-.24c.63-.17,1.3-.01,1.79.42h.01c.08.08.15.15.22.24.16.19.28.4.36.61.07.19.12.38.14.57.05.52-.12,1.05-.43,1.47l-.26.37-.38.53c-.97,1.37-2.5,2.2-4.16,2.41-.81.1-1.61.43-2.28.99-2.06,1.73-2.14,4.95.02,6.77,1.28,1.08,3.12,1.33,4.63.62,2-.93,2.84-3.02,2.43-4.92-.05-.22-.08-.43-.1-.65-.3-2.84,1.88-5.21,4.64-5.49.22,0,1.04.1,2.28.61,0,0,.01,0,.02,0,7.94,3.65,17.52.27,21.28-7.92l.11-.25c1.01-2.2,3.33-3.48,5.72-3.17h0c1.79.23,3.47,1.11,4.54,2.56,1.26,1.71,3.59,2.41,5.67,1.79,2.97-.89,4.57-4.17,3.32-7.11-.96-2.26-3.45-3.57-5.86-3.08-.74.15-1.41.44-1.98.84-1.51,1.05-3.33,1.58-5.15,1.33l-.46-.06-1.72-.24c-1.22-.17-2.27-.95-2.79-2.07v-.03c-.1-.18-.17-.37-.23-.56-.13-.45-.19-.89-.17-1.34,0-.12.01-.23.03-.35.15-1.25.93-2.33,2-2.99Z"/>
  </g>
</svg>