<?xml version="1.0" encoding="UTF-8"?>
<svg id="Layer_2" data-name="Layer 2" xmlns="http://www.w3.org/2000/svg" viewBox="0 0 502.93 224.29">
  <defs>
    <style>
      .cls-1 {
        fill: #fff;
        stroke-width: 3px;
        stroke: #000;
      }
    </style>
  </defs>
  <g id="Layer_1-2" data-name="Layer 1">
    <path class="cls-1"
      d="m393.58,83.94h0c9.99-5.87,20.26-9.17,28.57-9.17h12.13c17.3,0,41.14-14.02,53.25-31.32l8.49-12.13c12.11-17.3,7.91-31.32-9.39-31.32h-12.13c-17.3,0-41.14,14.02-53.25,31.32l-8.49,12.13c-5.82,8.31-14.69,16.27-24.68,22.15h0c-9.99,5.87-20.26,9.17-28.57,9.17h-12.12c-8.31,0-13.96-3.3-15.72-9.17h0c-1.76-5.88.52-13.84,6.33-22.15l8.49-12.13c12.11-17.3,7.91-31.32-9.39-31.32h-14.21c-17.3,0-41.14,14.02-53.25,31.32l-8.49,12.13c-5.82,8.31-14.69,16.27-24.68,22.15h0c-9.99,5.87-20.26,9.17-28.57,9.17h-12.12c-8.31,0-13.96-3.3-15.72-9.17h0c-1.76-5.88.52-13.84,6.33-22.15l8.49-12.13c12.11-17.3,7.91-31.32-9.39-31.32h-12.13c-17.3,0-41.14,14.02-53.25,31.32l-8.49,12.13c-12.11,17.3-7.91,31.32,9.39,31.32h12.13c8.31,0,13.96,3.3,15.72,9.17,1.76,5.87-.52,13.84-6.33,22.15l-8.49,12.13c-5.82,8.31-14.69,16.27-24.68,22.15h0c-9.99,5.87-20.26,9.17-28.57,9.17h-12.13c-17.3,0-41.14,14.02-53.25,31.32l-8.49,12.13c-12.11,17.3-7.91,31.32,9.39,31.32h12.13c17.3,0,41.14-14.02,53.25-31.32l8.49-12.13c5.82-8.31,14.69-16.27,24.68-22.15h0c9.99-5.87,20.26-9.17,28.57-9.17h12.13c8.31,0,13.96,3.3,15.72,9.17h0c1.76,5.87-.52,13.84-6.33,22.15l-8.49,12.13c-12.11,17.3-7.91,31.32,9.39,31.32h14.21c17.3,0,41.14-14.02,53.25-31.32l8.49-12.13c5.82-8.31,14.69-16.27,24.68-22.15h0c9.99-5.87,20.26-9.17,28.57-9.17h12.13c8.31,0,13.96,3.3,15.72,9.17h0c1.76,5.87-.52,13.84-6.33,22.15l-8.49,12.13c-12.11,17.3-7.91,31.32,9.39,31.32h12.13c17.3,0,41.14-14.02,53.25-31.32l8.49-12.13c12.11-17.3,7.91-31.32-9.39-31.32h-12.13c-8.31,0-13.96-3.3-15.72-9.17h0c-1.76-5.87.52-13.84,6.33-22.15l8.49-12.13c5.82-8.31,14.69-16.27,24.68-22.15Zm-107.93,34.27c-5.82,8.31-14.69,16.27-24.68,22.15h0c-9.99,5.87-20.26,9.17-28.57,9.17h-14.21c-8.31,0-13.96-3.3-15.72-9.17h0c-1.76-5.87.52-13.84,6.33-22.15l8.49-12.13c5.82-8.31,14.69-16.27,24.68-22.15h0c9.99-5.87,20.26-9.17,28.57-9.17h14.21c8.31,0,13.96,3.3,15.72,9.17,1.76,5.87-.52,13.84-6.33,22.15l-8.49,12.13Z" />
  </g>
</svg>