<?xml version="1.0" encoding="UTF-8"?>
<svg id="Layer_2" data-name="Layer 2" xmlns="http://www.w3.org/2000/svg" viewBox="0 0 90.54 67.77">
  <defs>
    <style>
      .cls-1 {
        fill: #fff;
        stroke: #000;
        stroke-miterlimit: 10;
        stroke-width: 0.3px;
      }
    </style>
  </defs>
  <g id="Layer_1-2" data-name="Layer 1">
    <path class="cls-1" d="m57.64,9.51C34.46-2.26,10.12-.9,3.28,12.56c-2.85,5.61-2.17,12.44,1.23,19.35-1.74-4.38-1.89-8.64-.08-12.21,4.95-9.75,22.58-10.74,39.37-2.21,16.79,8.53,26.39,23.35,21.43,33.09-4.95,9.75-22.58,10.74-39.37,2.21-4.74-2.41-8.87-5.32-12.3-8.48,5.12,5.21,11.66,10.06,19.31,13.94,23.18,11.78,47.52,10.41,54.36-3.05,6.84-13.46-6.41-33.92-29.6-45.7Z"/>
  </g>
</svg>